<svg xmlns="http://www.w3.org/2000/svg" viewBox="0 0 1200 780" role="img" aria-labelledby="title desc">
  <title id="title">Hybrid composite materials research illustration</title>
  <desc id="desc">Layered composite sample, stress contours, material fibers, and research grid.</desc>
  <defs>
    <linearGradient id="bg" x1="0" x2="1" y1="0" y2="1">
      <stop offset="0" stop-color="#050505"/>
      <stop offset=".62" stop-color="#161616"/>
      <stop offset="1" stop-color="#252117"/>
    </linearGradient>
    <radialGradient id="glow" cx=".72" cy=".26" r=".5">
      <stop offset="0" stop-color="#e0c36e" stop-opacity=".3"/>
      <stop offset="1" stop-color="#e0c36e" stop-opacity="0"/>
    </radialGradient>
  </defs>
  <rect width="1200" height="780" rx="36" fill="url(#bg)"/>
  <rect width="1200" height="780" fill="url(#glow)"/>
  <g opacity=".14" stroke="#fff" stroke-width="2">
    <path d="M130 155h940M130 290h940M130 425h940M130 560h940"/>
    <path d="M280 105v500M520 105v500M760 105v500M1000 105v500"/>
  </g>
  <g transform="translate(255 170)">
    <path d="M130 0l380 120-140 88L0 82z" fill="#f2f2f2"/>
    <path d="M0 82l370 126v112L0 192z" fill="#8d8d8d"/>
    <path d="M370 208l140-88v112l-140 88z" fill="#585858"/>
    <path d="M38 112l370 126M76 156l370 126M116 200l370 126" stroke="#111" stroke-width="8" stroke-linecap="round" opacity=".65"/>
    <path d="M118 46c95 30 182 66 292 124M64 72c120 32 224 76 360 138" stroke="#d8bd80" stroke-width="9" stroke-linecap="round"/>
  </g>
  <g transform="translate(730 260)">
    <circle cx="146" cy="146" r="118" fill="none" stroke="#f2f2f2" stroke-opacity=".26" stroke-width="12"/>
    <path d="M48 154c76-120 143 76 248-34" fill="none" stroke="#e0c36e" stroke-width="13" stroke-linecap="round"/>
    <path d="M72 202c70-72 128 28 212-38" fill="none" stroke="#f2f2f2" stroke-width="8" stroke-linecap="round"/>
    <circle cx="146" cy="146" r="22" fill="#e0c36e"/>
  </g>
  <text x="86" y="690" fill="#f6f6f6" font-family="Georgia,serif" font-size="54" font-weight="900">Hybrid Composite Research</text>
  <text x="90" y="724" fill="#a7a7a7" font-family="Segoe UI,sans-serif" font-size="21" font-weight="700">materials, CAD/CAE thinking, stress, and documentation</text>
</svg>
