<svg xmlns="http://www.w3.org/2000/svg" viewBox="0 0 1200 780" role="img" aria-labelledby="title desc">
  <title id="title">Excel training cover</title>
  <desc id="desc">Spreadsheet and analytics dashboard cover with charts and grid.</desc>
  <defs><linearGradient id="bg" x1="0" x2="1" y1="0" y2="1"><stop stop-color="#050505"/><stop offset=".64" stop-color="#151515"/><stop offset="1" stop-color="#18241d"/></linearGradient><radialGradient id="g" cx=".74" cy=".28" r=".52"><stop stop-color="#9be4ae" stop-opacity=".3"/><stop offset="1" stop-color="#9be4ae" stop-opacity="0"/></radialGradient></defs>
  <rect width="1200" height="780" rx="36" fill="url(#bg)"/><rect width="1200" height="780" fill="url(#g)"/>
  <rect x="160" y="130" width="540" height="382" rx="38" fill="#f2f2f2"/>
  <g stroke="#111" stroke-width="7" opacity=".55"><path d="M160 222h540M160 310h540M160 398h540M296 130v382M432 130v382M568 130v382"/></g>
  <path d="M228 432c78-112 130-48 192-126 52-66 110 22 172-84" fill="none" stroke="#111" stroke-width="16" stroke-linecap="round"/>
  <g fill="#9be4ae"><rect x="782" y="378" width="54" height="122" rx="14"/><rect x="866" y="308" width="54" height="192" rx="14"/><rect x="950" y="226" width="54" height="274" rx="14"/></g>
  <path d="M760 500h280" stroke="#f2f2f2" stroke-width="12" stroke-linecap="round"/>
  <text x="86" y="690" fill="#f6f6f6" font-family="Georgia,serif" font-size="52" font-weight="900">Excel Training</text><text x="90" y="724" fill="#a7a7a7" font-family="Segoe UI,sans-serif" font-size="21" font-weight="700">data cleaning, reporting, spreadsheet analysis</text>
</svg>
