<svg xmlns="http://www.w3.org/2000/svg" viewBox="0 0 1200 780" role="img" aria-labelledby="title desc">
  <title id="title">Engineering job simulation cover</title>
  <desc id="desc">Engineering simulation cover with cube, blueprint grid, and measurement arcs.</desc>
  <defs><linearGradient id="bg" x1="0" x2="1" y1="0" y2="1"><stop stop-color="#050505"/><stop offset=".64" stop-color="#151515"/><stop offset="1" stop-color="#1d212a"/></linearGradient><radialGradient id="g" cx=".68" cy=".28" r=".54"><stop stop-color="#a6bdff" stop-opacity=".3"/><stop offset="1" stop-color="#a6bdff" stop-opacity="0"/></radialGradient></defs>
  <rect width="1200" height="780" rx="36" fill="url(#bg)"/><rect width="1200" height="780" fill="url(#g)"/>
  <g opacity=".15" stroke="#fff" stroke-width="2"><path d="M130 160h940M130 295h940M130 430h940M130 565h940"/><path d="M280 105v520M500 105v520M720 105v520M940 105v520"/></g>
  <path d="M430 128l260 118-260 132-260-132z" fill="#f2f2f2"/><path d="M170 246l260 132v238L170 482z" fill="#8a8a8a"/><path d="M430 378l260-132v238L430 616z" fill="#555"/>
  <path d="M300 216l260 132M238 288l260 132M490 176c120 30 208 106 250 228" fill="none" stroke="#a6bdff" stroke-width="12" stroke-linecap="round" stroke-dasharray="12 18"/>
  <circle cx="430" cy="378" r="26" fill="#d8bd80"/>
  <text x="86" y="690" fill="#f6f6f6" font-family="Georgia,serif" font-size="52" font-weight="900">Engineering Simulation</text><text x="90" y="724" fill="#a7a7a7" font-family="Segoe UI,sans-serif" font-size="21" font-weight="700">technical exposure, modeling, analysis thinking</text>
</svg>
