<svg xmlns="http://www.w3.org/2000/svg" viewBox="0 0 1200 780" role="img" aria-labelledby="title desc">
  <title id="title">Smart home automation illustration</title>
  <desc id="desc">Smart home, relay circuit, Wi-Fi arcs, and connected device nodes.</desc>
  <defs>
    <linearGradient id="bg" x1="0" x2="1" y1="0" y2="1">
      <stop offset="0" stop-color="#050505"/>
      <stop offset=".6" stop-color="#161616"/>
      <stop offset="1" stop-color="#1d2828"/>
    </linearGradient>
    <radialGradient id="glow" cx=".72" cy=".26" r=".48">
      <stop offset="0" stop-color="#87d8d0" stop-opacity=".28"/>
      <stop offset="1" stop-color="#87d8d0" stop-opacity="0"/>
    </radialGradient>
  </defs>
  <rect width="1200" height="780" rx="36" fill="url(#bg)"/>
  <rect width="1200" height="780" fill="url(#glow)"/>
  <g opacity=".13" stroke="#fff" stroke-width="2">
    <path d="M130 170h940M130 300h940M130 430h940M130 560h940"/>
    <path d="M260 105v500M500 105v500M740 105v500M980 105v500"/>
  </g>
  <g transform="translate(180 200)">
    <path d="M110 160v238h360V160L290 32 110 160z" fill="#f2f2f2"/>
    <path d="M208 398V262h164v136" fill="#111"/>
    <path d="M110 160L290 32l180 128" fill="none" stroke="#87d8d0" stroke-width="16" stroke-linecap="round" stroke-linejoin="round"/>
  </g>
  <g transform="translate(660 165)">
    <rect width="270" height="270" rx="42" fill="#111" stroke="#f2f2f2" stroke-opacity=".28"/>
    <rect x="65" y="65" width="140" height="140" rx="28" fill="#f2f2f2"/>
    <path d="M40 90h-58M40 135h-58M40 180h-58M230 90h58M230 135h58M230 180h58M90 40V-18M135 40V-18M180 40V-18M90 230v58M135 230v58M180 230v58" stroke="#f2f2f2" stroke-width="10" stroke-linecap="round"/>
    <circle cx="135" cy="135" r="34" fill="#87d8d0"/>
  </g>
  <path d="M718 512c58-58 152-58 210 0M760 554c34-34 92-34 126 0" fill="none" stroke="#f2f2f2" stroke-width="12" stroke-linecap="round"/>
  <circle cx="824" cy="594" r="20" fill="#87d8d0"/>
  <text x="86" y="690" fill="#f6f6f6" font-family="Georgia,serif" font-size="54" font-weight="900">Smart Home Automation</text>
  <text x="90" y="724" fill="#a7a7a7" font-family="Segoe UI,sans-serif" font-size="21" font-weight="700">NodeMCU, relay control, Wi-Fi, Alexa, and Google Assistant</text>
</svg>
