<svg xmlns="http://www.w3.org/2000/svg" viewBox="0 0 1200 780" role="img" aria-labelledby="title desc">
  <title id="title">Digital marketing SEO credential cover</title>
  <desc id="desc">Marketing and SEO cover with megaphone, search card, and growth chart.</desc>
  <defs><linearGradient id="bg" x1="0" x2="1" y1="0" y2="1"><stop stop-color="#050505"/><stop offset=".64" stop-color="#151515"/><stop offset="1" stop-color="#2b1f25"/></linearGradient><radialGradient id="g" cx=".72" cy=".27" r=".52"><stop stop-color="#ff9ac5" stop-opacity=".3"/><stop offset="1" stop-color="#ff9ac5" stop-opacity="0"/></radialGradient></defs>
  <rect width="1200" height="780" rx="36" fill="url(#bg)"/><rect width="1200" height="780" fill="url(#g)"/>
  <g opacity=".13" stroke="#fff" stroke-width="2"><path d="M130 165h940M130 300h940M130 435h940M130 570h940"/><path d="M300 105v520M540 105v520M780 105v520"/></g>
  <path d="M210 364l290-130v258L210 370z" fill="#f2f2f2"/><path d="M500 234l118 54v150l-118 54z" fill="#ff9ac5"/><path d="M248 444l92 122" stroke="#f2f2f2" stroke-width="20" stroke-linecap="round"/>
  <rect x="700" y="170" width="270" height="170" rx="34" fill="#f2f2f2"/><circle cx="780" cy="255" r="38" fill="none" stroke="#111" stroke-width="13"/><path d="M810 286l48 48M882 224h52M882 272h34" stroke="#111" stroke-width="13" stroke-linecap="round"/>
  <path d="M720 520c58-128 118-108 174-184 48-66 76-72 132-118" fill="none" stroke="#ff9ac5" stroke-width="16" stroke-linecap="round"/>
  <text x="86" y="690" fill="#f6f6f6" font-family="Georgia,serif" font-size="52" font-weight="900">Digital Marketing &amp; SEO</text><text x="90" y="724" fill="#a7a7a7" font-family="Segoe UI,sans-serif" font-size="21" font-weight="700">content visibility, campaigns, growth signals</text>
</svg>
