<svg xmlns="http://www.w3.org/2000/svg" viewBox="0 0 1200 780" role="img" aria-labelledby="title desc">
  <title id="title">Blog writing cover</title>
  <desc id="desc">Article drafting cover with writing sheet, pen, and editorial layout.</desc>
  <defs><linearGradient id="bg" x1="0" x2="1" y1="0" y2="1"><stop stop-color="#050505"/><stop offset=".64" stop-color="#151515"/><stop offset="1" stop-color="#1d261c"/></linearGradient><radialGradient id="g" cx=".74" cy=".25" r=".52"><stop stop-color="#a8efba" stop-opacity=".3"/><stop offset="1" stop-color="#a8efba" stop-opacity="0"/></radialGradient></defs>
  <rect width="1200" height="780" rx="36" fill="url(#bg)"/><rect width="1200" height="780" fill="url(#g)"/>
  <g opacity=".13" stroke="#fff" stroke-width="2"><path d="M130 160h940M130 295h940M130 430h940M130 565h940"/><path d="M280 105v520M520 105v520M760 105v520"/></g>
  <rect x="180" y="130" width="520" height="390" rx="42" fill="#f2f2f2"/><path d="M270 235h300M270 300h230M270 365h310M270 430h190" stroke="#111" stroke-width="18" stroke-linecap="round"/>
  <path d="M690 418l168-168 62 62-168 168-98 38z" fill="#a8efba" stroke="#f2f2f2" stroke-width="10" stroke-linejoin="round"/>
  <path d="M230 570c160-72 326-72 498 0" fill="none" stroke="#a8efba" stroke-width="13" stroke-linecap="round"/>
  <text x="86" y="690" fill="#f6f6f6" font-family="Georgia,serif" font-size="52" font-weight="900">Blog Writing</text><text x="90" y="724" fill="#a7a7a7" font-family="Segoe UI,sans-serif" font-size="21" font-weight="700">articles, drafts, HTML pages, portfolio writing</text>
</svg>
