<svg xmlns="http://www.w3.org/2000/svg" viewBox="0 0 1200 780" role="img" aria-labelledby="title desc">
  <title id="title">Emotional intelligence credential cover</title>
  <desc id="desc">Communication and teamwork cover with people, chat, and calm signal lines.</desc>
  <defs><linearGradient id="bg" x1="0" x2="1" y1="0" y2="1"><stop stop-color="#050505"/><stop offset=".62" stop-color="#151515"/><stop offset="1" stop-color="#271f24"/></linearGradient><radialGradient id="g" cx=".25" cy=".24" r=".52"><stop stop-color="#f1a5ba" stop-opacity=".28"/><stop offset="1" stop-color="#f1a5ba" stop-opacity="0"/></radialGradient></defs>
  <rect width="1200" height="780" rx="36" fill="url(#bg)"/><rect width="1200" height="780" fill="url(#g)"/>
  <g opacity=".13" stroke="#fff" stroke-width="2"><path d="M130 170h940M130 305h940M130 440h940M130 575h940"/><path d="M280 105v520M520 105v520M760 105v520M1000 105v520"/></g>
  <circle cx="360" cy="268" r="88" fill="#f2f2f2"/><circle cx="560" cy="268" r="88" fill="#f1a5ba"/>
  <path d="M214 515v-72c0-82 66-148 148-148h0c82 0 148 66 148 148v72M432 515v-72c0-82 66-148 148-148h0c82 0 148 66 148 148v72" fill="none" stroke="#f2f2f2" stroke-width="16" stroke-linecap="round"/>
  <path d="M318 268h42M522 268h42M412 348c44 34 96 34 138 0" fill="none" stroke="#111" stroke-width="13" stroke-linecap="round"/>
  <path d="M782 176h174v116h-76l-42 48v-48h-56z" fill="#f2f2f2"/><path d="M822 226h92M822 266h52" stroke="#111" stroke-width="13" stroke-linecap="round"/>
  <text x="86" y="690" fill="#f6f6f6" font-family="Georgia,serif" font-size="52" font-weight="900">Emotional Intelligence</text><text x="90" y="724" fill="#a7a7a7" font-family="Segoe UI,sans-serif" font-size="21" font-weight="700">workplace communication, empathy, collaboration</text>
</svg>
