<svg xmlns="http://www.w3.org/2000/svg" viewBox="0 0 1200 780" role="img" aria-labelledby="title desc">
  <title id="title">Behance branding portfolio cover</title>
  <desc id="desc">Branding board cover with logo mark, palette swatches, and visual direction cards.</desc>
  <defs><linearGradient id="bg" x1="0" x2="1" y1="0" y2="1"><stop stop-color="#050505"/><stop offset=".62" stop-color="#151515"/><stop offset="1" stop-color="#2a2022"/></linearGradient><radialGradient id="g" cx=".74" cy=".26" r=".52"><stop stop-color="#f2a9b8" stop-opacity=".31"/><stop offset="1" stop-color="#f2a9b8" stop-opacity="0"/></radialGradient></defs>
  <rect width="1200" height="780" rx="36" fill="url(#bg)"/><rect width="1200" height="780" fill="url(#g)"/>
  <g opacity=".13" stroke="#fff" stroke-width="2"><path d="M130 160h940M130 295h940M130 430h940M130 565h940"/><path d="M280 105v520M520 105v520M760 105v520M1000 105v520"/></g>
  <circle cx="320" cy="296" r="132" fill="#f2f2f2"/><path d="M272 296l48 48 96-124" fill="none" stroke="#111" stroke-width="24" stroke-linecap="round" stroke-linejoin="round"/>
  <rect x="538" y="154" width="248" height="248" rx="52" fill="#f2a9b8"/><path d="M600 278h124M600 332h80" stroke="#111" stroke-width="18" stroke-linecap="round"/>
  <rect x="208" y="492" width="120" height="42" rx="21" fill="#f2a9b8"/><rect x="358" y="492" width="120" height="42" rx="21" fill="#f2f2f2"/><rect x="508" y="492" width="120" height="42" rx="21" fill="#777"/>
  <text x="86" y="690" fill="#f6f6f6" font-family="Georgia,serif" font-size="52" font-weight="900">Behance Branding</text><text x="90" y="724" fill="#a7a7a7" font-family="Segoe UI,sans-serif" font-size="21" font-weight="700">logo, branding, boards, visual direction</text>
</svg>
