<svg xmlns="http://www.w3.org/2000/svg" viewBox="0 0 1200 780" role="img" aria-labelledby="title desc">
  <title id="title">Salesforce Trailhead credential cover</title>
  <desc id="desc">Dark credential cover with cloud, badge constellation, and CRM learning path.</desc>
  <defs><linearGradient id="bg" x1="0" x2="1" y1="0" y2="1"><stop stop-color="#050505"/><stop offset=".62" stop-color="#161616"/><stop offset="1" stop-color="#162229"/></linearGradient><radialGradient id="g" cx=".75" cy=".24" r=".58"><stop stop-color="#82d8ff" stop-opacity=".32"/><stop offset="1" stop-color="#82d8ff" stop-opacity="0"/></radialGradient></defs>
  <rect width="1200" height="780" rx="36" fill="url(#bg)"/><rect width="1200" height="780" fill="url(#g)"/>
  <g opacity=".14" stroke="#fff" stroke-width="2"><path d="M130 160h940M130 285h940M130 410h940M130 535h940"/><path d="M260 110v500M470 110v500M680 110v500M890 110v500"/></g>
  <path d="M330 392c-90 0-150-54-150-132 0-75 62-132 142-120 42-86 178-95 232-15 85-26 176 32 176 120 0 84-68 147-158 147z" fill="#f2f2f2"/>
  <path d="M358 298h224M358 350h152" stroke="#080808" stroke-width="18" stroke-linecap="round"/>
  <path d="M734 214l70 40v80l-70 40-70-40v-80zM874 320l54 31v62l-54 31-54-31v-62z" fill="#87d8ff"/>
  <path d="M730 292l18 18 42-54M858 384l16 16 34-44" fill="none" stroke="#080808" stroke-width="12" stroke-linecap="round" stroke-linejoin="round"/>
  <path d="M590 435c88 52 166 54 274 0" fill="none" stroke="#f2f2f2" stroke-width="8" stroke-dasharray="16 18" stroke-linecap="round"/>
  <text x="86" y="690" fill="#f6f6f6" font-family="Georgia,serif" font-size="52" font-weight="900">Salesforce Trailhead</text><text x="90" y="724" fill="#a7a7a7" font-family="Segoe UI,sans-serif" font-size="21" font-weight="700">badges, CRM learning, admin workflows</text>
</svg>
