<svg xmlns="http://www.w3.org/2000/svg" width="1200" height="780" viewBox="0 0 1200 780" role="img" aria-labelledby="title desc">
  <title id="title">Documentation system cover art</title>
  <desc id="desc">Dark editorial document stack illustration.</desc>
  <defs>
    <linearGradient id="bg" x1="0" y1="0" x2="1" y2="1">
      <stop offset="0" stop-color="#030303"/><stop offset="0.55" stop-color="#111"/><stop offset="1" stop-color="#2c2926"/>
    </linearGradient>
    <filter id="shadow" x="-20%" y="-20%" width="140%" height="140%">
      <feDropShadow dx="0" dy="30" stdDeviation="28" flood-color="#000" flood-opacity="0.58"/>
    </filter>
  </defs>
  <rect width="1200" height="780" rx="56" fill="url(#bg)"/>
  <g stroke="#2d2d2d" stroke-width="2">
    <path d="M160 150h880M160 245h880M160 340h880M160 435h880M160 530h880"/>
    <path d="M250 96v520M380 96v520M510 96v520M640 96v520M770 96v520M900 96v520"/>
  </g>
  <g filter="url(#shadow)">
    <rect x="274" y="166" width="482" height="430" rx="28" fill="#ededed"/>
    <rect x="330" y="242" width="310" height="22" rx="11" fill="#111"/>
    <rect x="330" y="306" width="356" height="16" rx="8" fill="#707070"/>
    <rect x="330" y="354" width="260" height="16" rx="8" fill="#999"/>
    <rect x="330" y="402" width="332" height="16" rx="8" fill="#707070"/>
    <rect x="330" y="470" width="176" height="44" rx="14" fill="#111"/>
    <rect x="668" y="232" width="224" height="308" rx="24" fill="#181818" stroke="#555"/>
    <path d="M724 310h104M724 364h122M724 418h74" stroke="#f1f1f1" stroke-width="16" stroke-linecap="round"/>
    <circle cx="830" cy="482" r="34" fill="#f3d27c"/>
  </g>
  <text x="205" y="662" fill="#f8f8f8" font-family="Georgia, serif" font-size="56" font-weight="700">Documentation Systems</text>
  <text x="207" y="706" fill="#a8a8a8" font-family="Arial, sans-serif" font-size="24">Templates, SOPs, checklists, workflows, and operating clarity</text>
</svg>
