<svg xmlns="http://www.w3.org/2000/svg" viewBox="0 0 1200 780" role="img" aria-labelledby="title desc">
  <title id="title">Python credential cover</title>
  <desc id="desc">Dark coding cover with terminal, code lines, and looping automation path.</desc>
  <defs><linearGradient id="bg" x1="0" x2="1" y1="0" y2="1"><stop stop-color="#050505"/><stop offset=".64" stop-color="#171717"/><stop offset="1" stop-color="#1c1f2a"/></linearGradient><radialGradient id="g" cx=".72" cy=".25" r=".56"><stop stop-color="#b9b6ff" stop-opacity=".33"/><stop offset="1" stop-color="#b9b6ff" stop-opacity="0"/></radialGradient></defs>
  <rect width="1200" height="780" rx="36" fill="url(#bg)"/><rect width="1200" height="780" fill="url(#g)"/>
  <g opacity=".13" stroke="#fff" stroke-width="2"><path d="M130 165h940M130 300h940M130 435h940M130 570h940"/><path d="M285 105v520M520 105v520M755 105v520M990 105v520"/></g>
  <rect x="168" y="138" width="560" height="360" rx="38" fill="#f2f2f2"/>
  <circle cx="230" cy="204" r="13" fill="#111"/><circle cx="270" cy="204" r="13" fill="#777"/><circle cx="310" cy="204" r="13" fill="#b9b6ff"/>
  <path d="M240 292h148M240 350h246M240 408h118M508 292h118M532 408h72" stroke="#111" stroke-width="18" stroke-linecap="round"/>
  <path d="M760 245c102-50 194 0 194 76 0 88-128 76-128 150 0 70 112 78 176 24" fill="none" stroke="#b9b6ff" stroke-width="17" stroke-linecap="round"/>
  <circle cx="824" cy="470" r="28" fill="#f2f2f2"/><circle cx="944" cy="320" r="22" fill="#b9b6ff"/>
  <text x="86" y="690" fill="#f6f6f6" font-family="Georgia,serif" font-size="52" font-weight="900">Python Beyond Basics</text><text x="90" y="724" fill="#a7a7a7" font-family="Segoe UI,sans-serif" font-size="21" font-weight="700">coding, automation, scripts, technical workflows</text>
</svg>
