<svg xmlns="http://www.w3.org/2000/svg" viewBox="0 0 1200 780" role="img" aria-labelledby="title desc">
  <title id="title">Advocate documentation support illustration</title>
  <desc id="desc">Legal-admin case file, scales, checklist, and matter tracking interface.</desc>
  <defs>
    <linearGradient id="bg" x1="0" x2="1" y1="0" y2="1">
      <stop offset="0" stop-color="#050505"/>
      <stop offset=".62" stop-color="#171717"/>
      <stop offset="1" stop-color="#271f1c"/>
    </linearGradient>
    <radialGradient id="glow" cx=".78" cy=".2" r=".5">
      <stop offset="0" stop-color="#d7c2a2" stop-opacity=".3"/>
      <stop offset="1" stop-color="#d7c2a2" stop-opacity="0"/>
    </radialGradient>
  </defs>
  <rect width="1200" height="780" rx="36" fill="url(#bg)"/>
  <rect width="1200" height="780" fill="url(#glow)"/>
  <g opacity=".14" stroke="#fff" stroke-width="2">
    <path d="M120 160h960M120 300h960M120 440h960M120 580h960"/>
    <path d="M310 100v520M600 100v520M890 100v520"/>
  </g>
  <g transform="translate(170 135)">
    <rect width="410" height="440" rx="36" fill="#f2f2f2"/>
    <path d="M74 92h250M74 152h205M74 212h250" stroke="#111" stroke-width="18" stroke-linecap="round"/>
    <g transform="translate(72 278)">
      <rect width="250" height="92" rx="18" fill="#111"/>
      <path d="M36 48h178" stroke="#f2f2f2" stroke-width="13" stroke-linecap="round"/>
    </g>
  </g>
  <g transform="translate(620 132)" fill="none" stroke="#f2f2f2" stroke-width="14" stroke-linecap="round" stroke-linejoin="round">
    <path d="M190 30v352"/>
    <path d="M92 100h196"/>
    <path d="M110 100l-66 144h132L110 100z"/>
    <path d="M270 100l-66 144h132L270 100z"/>
    <path d="M78 284h64M238 284h64"/>
    <path d="M112 382h156"/>
  </g>
  <circle cx="810" cy="247" r="25" fill="#d8bd80"/>
  <g transform="translate(705 475)">
    <rect width="270" height="88" rx="26" fill="#101010" stroke="#f2f2f2" stroke-opacity=".24"/>
    <path d="M42 44l28 28 58-58M154 42h74" stroke="#d8bd80" stroke-width="11" stroke-linecap="round" stroke-linejoin="round"/>
  </g>
  <text x="86" y="690" fill="#f6f6f6" font-family="Georgia,serif" font-size="54" font-weight="900">Advocate Support Pack</text>
  <text x="90" y="724" fill="#a7a7a7" font-family="Segoe UI,sans-serif" font-size="21" font-weight="700">case intake, matter tracking, and checklists</text>
</svg>
