<svg xmlns="http://www.w3.org/2000/svg" width="1100" height="1100" viewBox="0 0 1100 1100" role="img" aria-labelledby="title desc">
  <title id="title">Monochrome portrait illustration</title>
  <desc id="desc">A stylized black and white pen-art portrait for the portfolio hero.</desc>
  <defs>
    <linearGradient id="skin" x1="0" y1="0" x2="1" y2="1">
      <stop offset="0" stop-color="#f4f4f4"/>
      <stop offset="1" stop-color="#9b9b9b"/>
    </linearGradient>
    <linearGradient id="hair" x1="0" y1="0" x2="1" y2="1">
      <stop offset="0" stop-color="#111"/>
      <stop offset="1" stop-color="#383838"/>
    </linearGradient>
    <filter id="softShadow" x="-20%" y="-20%" width="140%" height="140%">
      <feDropShadow dx="0" dy="26" stdDeviation="28" flood-color="#000" flood-opacity="0.5"/>
    </filter>
  </defs>
  <rect width="1100" height="1100" fill="#050505"/>
  <g opacity="0.5">
    <path d="M180 780h310M180 720h230M180 660h160M720 342h170M760 410h98M790 478h170" stroke="#6f6f6f" stroke-width="2"/>
    <path d="M560 190v690M620 210v610M680 250v520M740 300v430M440 290v460M380 370v320" stroke="#2f2f2f" stroke-width="2"/>
    <path d="M280 580h570M300 640h490M330 700h430M390 760h310M490 820h170" stroke="#242424" stroke-width="2"/>
  </g>
  <g filter="url(#softShadow)">
    <path d="M503 226c-78 16-135 75-148 157-10 63 7 129 39 184 16 27 33 55 42 86 13 46 2 94-20 135 63 31 134 48 207 41 96-10 179-61 211-137 22-52 15-112-4-165-16-45-40-87-47-134-10-68 16-143-30-196-47-55-165-85-250 29z" fill="url(#hair)"/>
    <path d="M453 332c-31 49-40 113-25 173 18 73 70 136 136 167 40 19 86 25 128 11 63-21 102-85 112-151 9-59-4-119-26-174-31-76-95-132-171-141-65-7-122 36-154 115z" fill="url(#skin)"/>
    <path d="M430 340c43-88 128-134 216-111 72 19 118 80 140 151-48-31-105-49-163-52-72-4-138 13-193 12z" fill="#0e0e0e"/>
    <path d="M434 402c70-21 142-23 216-7 42 9 80 24 119 44-2-42-14-84-38-121-47-71-152-104-232-55-42 26-66 72-65 139z" fill="#151515"/>
    <path d="M520 477c-19-8-44-6-61 7M660 464c25-13 55-10 75 7" fill="none" stroke="#0a0a0a" stroke-width="14" stroke-linecap="round"/>
    <path d="M591 493c-10 42-26 75-44 103 22 12 49 11 72-1" fill="none" stroke="#222" stroke-width="10" stroke-linecap="round" stroke-linejoin="round"/>
    <path d="M518 661c54 32 116 31 173-1" fill="none" stroke="#111" stroke-width="13" stroke-linecap="round"/>
    <path d="M452 742c56 90 78 168 72 257h248c-20-94-10-180 48-260-121 71-245 74-368 3z" fill="#181818"/>
    <path d="M404 409c14 118 80 224 188 277M778 421c-30 129-97 225-204 281M496 268c90-48 188-28 256 44M452 376c87-54 196-58 309-8" fill="none" stroke="#f2f2f2" stroke-width="8" stroke-linecap="round" opacity="0.24"/>
  </g>
  <g opacity="0.8">
    <rect x="160" y="170" width="110" height="110" fill="#151515" stroke="#444"/>
    <rect x="862" y="204" width="68" height="68" fill="#202020" stroke="#555"/>
    <rect x="880" y="315" width="38" height="38" fill="#2c2c2c"/>
    <rect x="206" y="870" width="52" height="52" fill="#242424"/>
  </g>
</svg>
