<svg xmlns="http://www.w3.org/2000/svg" width="1200" height="1200" viewBox="0 0 1200 1200" role="img" aria-labelledby="title desc">
  <title id="title">Elegant monochrome woman pencil portrait</title>
  <desc id="desc">A cinematic black and white pencil-art style portrait of a woman for the portfolio hero.</desc>
  <defs>
    <radialGradient id="glow" cx="48%" cy="34%" r="68%">
      <stop offset="0" stop-color="#2b2b2b"/>
      <stop offset="0.55" stop-color="#080808"/>
      <stop offset="1" stop-color="#000"/>
    </radialGradient>
    <linearGradient id="face" x1="0" y1="0" x2="1" y2="1">
      <stop offset="0" stop-color="#f7f7f7"/>
      <stop offset="0.45" stop-color="#cfcfcf"/>
      <stop offset="1" stop-color="#777"/>
    </linearGradient>
    <linearGradient id="hair" x1="0" y1="0" x2="1" y2="1">
      <stop offset="0" stop-color="#050505"/>
      <stop offset="0.58" stop-color="#242424"/>
      <stop offset="1" stop-color="#080808"/>
    </linearGradient>
    <linearGradient id="paper" x1="0" y1="0" x2="1" y2="1">
      <stop offset="0" stop-color="#f4f4f4"/>
      <stop offset="1" stop-color="#989898"/>
    </linearGradient>
    <filter id="shadow" x="-20%" y="-20%" width="140%" height="140%">
      <feDropShadow dx="0" dy="34" stdDeviation="30" flood-color="#000" flood-opacity="0.68"/>
    </filter>
    <pattern id="hatch" width="18" height="18" patternUnits="userSpaceOnUse" patternTransform="rotate(-18)">
      <path d="M0 9h18" stroke="#fff" stroke-width="1" opacity="0.08"/>
    </pattern>
  </defs>

  <rect width="1200" height="1200" fill="url(#glow)"/>
  <rect width="1200" height="1200" fill="url(#hatch)" opacity="0.55"/>

  <g opacity="0.5" stroke="#2d2d2d" stroke-width="2">
    <path d="M154 326h250M154 410h350M154 494h250M710 282h320M760 366h210M805 450h270M160 840h360M202 910h270M780 840h250"/>
    <path d="M270 230v760M360 170v820M450 250v680M720 170v820M810 250v680M900 220v720"/>
  </g>

  <g opacity="0.72">
    <rect x="150" y="214" width="114" height="114" fill="#121212" stroke="#505050"/>
    <rect x="960" y="205" width="86" height="86" fill="#151515" stroke="#606060"/>
    <rect x="990" y="355" width="44" height="44" fill="#262626"/>
    <rect x="216" y="915" width="58" height="58" fill="#1f1f1f"/>
  </g>

  <g filter="url(#shadow)">
    <path d="M381 1010c-20-125 0-238 54-340-72-118-79-282 2-395 74-103 207-150 336-118 135 34 230 142 251 278 18 115-20 216-91 299 41 88 52 183 34 276H381z" fill="url(#hair)"/>
    <path d="M443 466c10-140 101-248 229-265 121-16 231 57 274 180 39 113 11 256-66 352-69 86-167 130-261 109-103-23-180-116-204-231-10-47-6-98 28-145z" fill="url(#face)"/>
    <path d="M420 488c49-143 160-235 303-222 103 9 184 68 230 161-83-55-184-82-302-73-90 7-166 44-231 134z" fill="#111"/>
    <path d="M457 424c90-108 238-143 373-76 43 21 80 52 112 93-150-44-304-30-485-17z" fill="#0b0b0b"/>
    <path d="M419 559c34-92 98-145 190-161 112-19 227 4 340 50-42-96-117-165-222-189-120-27-238 19-304 121-32 49-44 112-4 179z" fill="#151515" opacity="0.92"/>
    <path d="M448 536c74-38 151-57 230-58 103-1 189 25 260 77" fill="none" stroke="#f7f7f7" stroke-width="7" stroke-linecap="round" opacity="0.35"/>
    <path d="M443 632c45-36 98-48 153-31M714 600c56-32 112-23 163 20" fill="none" stroke="#070707" stroke-width="14" stroke-linecap="round"/>
    <path d="M470 651c38-14 75-11 112 10M738 628c38-18 77-14 116 12" fill="none" stroke="#f7f7f7" stroke-width="5" stroke-linecap="round" opacity="0.45"/>
    <path d="M660 638c-10 58-31 107-62 146 35 20 77 20 121-4" fill="none" stroke="#171717" stroke-width="12" stroke-linecap="round" stroke-linejoin="round"/>
    <path d="M561 843c81 49 170 45 260-10" fill="none" stroke="#111" stroke-width="14" stroke-linecap="round"/>
    <path d="M584 876c68 24 135 20 199-13" fill="none" stroke="#f5f5f5" stroke-width="5" stroke-linecap="round" opacity="0.36"/>
    <path d="M493 430c-54 100-68 226-31 338 31 94 93 166 177 211M914 477c21 100 4 202-45 291-47 86-116 151-207 195" fill="none" stroke="#fff" stroke-width="7" stroke-linecap="round" opacity="0.16"/>
    <path d="M370 835c94 110 216 161 365 154 91-4 171-35 240-93" fill="none" stroke="#fff" stroke-width="7" stroke-linecap="round" opacity="0.1"/>
    <path d="M403 1008c49-92 113-151 192-177 99-31 212-10 339 64 12 36 19 74 21 113H403z" fill="#111"/>
    <path d="M525 982c83-80 177-104 282-72" fill="none" stroke="#f7f7f7" stroke-width="5" stroke-linecap="round" opacity="0.2"/>
  </g>

  <g opacity="0.5" fill="none" stroke="#f1f1f1" stroke-linecap="round">
    <path d="M470 338c115-115 286-125 417-24" stroke-width="6"/>
    <path d="M433 744c42 117 121 197 237 240" stroke-width="4"/>
    <path d="M892 742c-38 106-110 184-215 236" stroke-width="4"/>
    <path d="M510 524c125-72 265-68 419 14" stroke-width="4"/>
  </g>
</svg>
